<svg xmlns="http://www.w3.org/2000/svg" viewBox="0 0 102.57 22.81"><defs><style>.cls-1{fill:#6cace4;}.cls-2{fill:#262261;}</style></defs><title>All of US</title><g id="Layer_2" data-name="Layer 2"><g id="Layer_4" data-name="Layer 4"><path class="cls-1" d="M44.8,14.49a4.69,4.69,0,0,1,2.31-3.86,5.34,5.34,0,0,1,2.83-.73,4.05,4.05,0,0,1,3,1,3.22,3.22,0,0,1,1,2.35,4.38,4.38,0,0,1-1.47,3.28,5.23,5.23,0,0,1-3.75,1.39,4.45,4.45,0,0,1-2.76-.84,3,3,0,0,1-1.11-2.57m2.66.92a2,2,0,0,0,.3,1.21,1.07,1.07,0,0,0,.91.4q1.12,0,1.83-1.69a7.7,7.7,0,0,0,.71-2.86,2,2,0,0,0-.34-1.29,1,1,0,0,0-.78-.4q-1.2,0-1.92,1.78a8.1,8.1,0,0,0-.72,2.85"/><path class="cls-1" d="M58.7,11.2l-.91,4.06a13.85,13.85,0,0,1-2.1,5.25,4.22,4.22,0,0,1-3.56,1.73,2.44,2.44,0,0,1-1.56-.41,1.24,1.24,0,0,1-.49-1,1.16,1.16,0,0,1,.39-.88,1.27,1.27,0,0,1,.89-.36,1.14,1.14,0,0,1,1.21,1.12q.08.57.5.57t.77-.76a17.92,17.92,0,0,0,.85-3.07L55,16.15q.13-.47.18-.74l.92-4.2H54.89l.31-1h1.08a8.76,8.76,0,0,1,2-4.11,4,4,0,0,1,2.71-1,3.25,3.25,0,0,1,1.72.41,1.23,1.23,0,0,1,.67,1.09,1.12,1.12,0,0,1-.32.79,1.08,1.08,0,0,1-.82.34q-.72,0-1.23-1-.38-.75-.77-.75t-.7,1.21l-.6,3h1.35l-.31,1Z"/><path class="cls-2" d="M9,.77h7.11l9,21.61H17.41L16.28,19.5H8.77l-1.1,2.88H0ZM14.5,14.41l-2-5.21-2,5.21Z"/><rect class="cls-2" x="26.12" width="6.96" height="22.38"/><rect class="cls-2" x="36.2" width="6.96" height="22.38"/><path class="cls-2" d="M64.63,12.75V.92h7.3V12.66c0,2.67,1.38,3.8,3.31,3.8s3.31-1,3.31-3.65V.92h7.3V12.6c0,7.33-4.26,10.21-10.67,10.21S64.63,19.86,64.63,12.75"/><path class="cls-2" d="M86.72,20.35l2.36-4a12.13,12.13,0,0,0,6.19,1.87c.67,0,1-.15,1-.55v-.06c0-.34-.31-.55-2-1-4.23-1-6.84-2.18-6.84-5.64V11c0-3.68,2.94-5.73,7.3-5.73a14.86,14.86,0,0,1,7.51,1.93l-2.21,4.14a12.36,12.36,0,0,0-5.33-1.56c-.67,0-1,.18-1,.52v.06c0,.34.37.55,2.05,1,4.23,1,6.77,2.21,6.77,5.64V17c0,3.65-2.73,5.76-7.26,5.76a15.32,15.32,0,0,1-8.58-2.42"/></g></g></svg>